<svg xmlns="http://www.w3.org/2000/svg" style="display:none">
  <symbol id="i-eggs" viewBox="0 0 64 64">
    <path d="M32 10c-10 0-18 13-18 26 0 10 8 18 18 18s18-8 18-18c0-13-8-26-18-26z" fill="#691E06"/>
  </symbol>
  <symbol id="i-milk" viewBox="0 0 64 64">
    <path d="M26 8h12l2 8v40H24V16l2-8z" fill="#691E06"/>
    <path d="M26 24h14" stroke="#FABC75" stroke-width="4" opacity=".7"/>
  </symbol>
  <symbol id="i-tomato" viewBox="0 0 64 64">
    <path d="M32 18c-12 0-22 8-22 20s10 20 22 20 22-8 22-20-10-20-22-20z" fill="#691E06"/>
    <path d="M32 18c4-8 10-8 12-8-3 2-4 6-4 10" fill="none" stroke="#FABC75" stroke-width="4" stroke-linecap="round"/>
  </symbol>
  <symbol id="i-cheese" viewBox="0 0 64 64">
    <path d="M10 44l44-16v26H10V44z" fill="#691E06"/>
    <circle cx="28" cy="42" r="3" fill="#FABC75" opacity=".65"/>
    <circle cx="40" cy="38" r="4" fill="#FABC75" opacity=".65"/>
  </symbol>
  <symbol id="i-butter" viewBox="0 0 64 64">
    <rect x="12" y="28" width="40" height="20" rx="6" fill="#691E06"/>
    <rect x="18" y="22" width="28" height="10" rx="5" fill="#691E06"/>
    <path d="M18 38h28" stroke="#FABC75" stroke-width="4" opacity=".6"/>
  </symbol>
  <symbol id="i-onion" viewBox="0 0 64 64">
    <path d="M32 10c-2 6-8 8-8 14 0 4 4 6 8 6s8-2 8-6c0-6-6-8-8-14z" fill="#691E06"/>
    <path d="M16 30c0 18 7 26 16 26s16-8 16-26c-6 6-10 8-16 8s-10-2-16-8z" fill="#691E06"/>
  </symbol>
  <symbol id="i-potato" viewBox="0 0 64 64">
    <path d="M24 14c10-6 26 2 28 16s-8 28-22 28S10 48 10 34s4-16 14-20z" fill="#691E06"/>
    <circle cx="26" cy="30" r="2" fill="#FABC75" opacity=".6"/>
    <circle cx="38" cy="38" r="2" fill="#FABC75" opacity=".6"/>
  </symbol>
  <symbol id="i-carrot" viewBox="0 0 64 64">
    <path d="M32 18c10 10 10 24 0 36-10-12-10-26 0-36z" fill="#691E06"/>
    <path d="M32 18c-6-6-10-6-14-6 4 4 6 8 6 12" fill="none" stroke="#FABC75" stroke-width="4" stroke-linecap="round"/>
  </symbol>
  <symbol id="i-pasta" viewBox="0 0 64 64">
    <path d="M18 18c0 18 0 18 0 36" stroke="#691E06" stroke-width="6" stroke-linecap="round"/>
    <path d="M32 18c0 18 0 18 0 36" stroke="#691E06" stroke-width="6" stroke-linecap="round"/>
    <path d="M46 18c0 18 0 18 0 36" stroke="#691E06" stroke-width="6" stroke-linecap="round"/>
  </symbol>
  <symbol id="i-chicken" viewBox="0 0 64 64">
    <path d="M18 34c0-10 10-18 22-18 10 0 18 7 18 16 0 9-7 16-16 16-5 0-8-2-10-4-2 8-14 10-18 2 4-2 6-6 4-12z" fill="#691E06"/>
  </symbol>
  <symbol id="i-flour" viewBox="0 0 64 64">
    <path d="M22 10h20l6 10v34H16V20l6-10z" fill="#691E06"/>
    <path d="M22 26h20" stroke="#FABC75" stroke-width="4" opacity=".7"/>
  </symbol>
  <symbol id="i-sugar" viewBox="0 0 64 64">
    <path d="M20 18h24l8 10-8 28H20l-8-28 8-10z" fill="#691E06"/>
    <circle cx="30" cy="36" r="2" fill="#FABC75" opacity=".6"/>
    <circle cx="38" cy="42" r="2" fill="#FABC75" opacity=".6"/>
  </symbol>
</svg>